<?xml version="1.0" encoding="utf-8"?>
<!-- Generator: Adobe Illustrator 21.0.0, SVG Export Plug-In . SVG Version: 6.00 Build 0)  -->
<svg version="1.1" id="图层_1" xmlns="http://www.w3.org/2000/svg" xmlns:xlink="http://www.w3.org/1999/xlink" x="0px" y="0px"
	 viewBox="0 0 28 28" style="enable-background:new 0 0 28 28;" xml:space="preserve">
<style type="text/css">
	.st0{fill:#CCCCCC;}
	.st1{fill:none;stroke:#CCCCCC;stroke-width:2;stroke-linecap:round;stroke-miterlimit:10;}
	.st2{fill:none;stroke:#CCCCCC;stroke-width:2;stroke-miterlimit:10;}
	.st3{fill:none;stroke:#CCCCCC;stroke-width:2;stroke-linecap:round;stroke-linejoin:round;stroke-miterlimit:10;}
	.st4{fill:#FFFFFF;stroke:#CCCCCC;stroke-width:2;stroke-linecap:round;stroke-miterlimit:10;}
	.st5{fill:none;stroke:#CCCCCC;stroke-linecap:round;stroke-miterlimit:10;}
</style>
<path class="st0" d="M18.4,7.1h-4.5h-3h-0.5C9,7.1,7.9,8.2,7.9,9.6v9c0,1.4,1.1,2.5,2.5,2.5h8c0.8,0,1.5-0.7,1.5-1.5v-11
	C19.9,7.7,19.2,7.1,18.4,7.1z M12.9,8.1v2.5c0,0.3-0.2,0.5-0.5,0.5s-0.5-0.2-0.5-0.5V8.1H12.9z M10.4,8.1h0.5v2.5
	c0,0.8,0.7,1.5,1.5,1.5s1.5-0.7,1.5-1.5V8.1h4.5c0.3,0,0.5,0.2,0.5,0.5V17h-10V9.6C8.9,8.7,9.6,8.1,10.4,8.1z M18.4,20.1h-8
	c-0.8,0-1.5-0.7-1.5-1.5V18h10v1.6C18.9,19.8,18.7,20.1,18.4,20.1z"/>
</svg>
