<svg id="图层_1" data-name="图层 1" xmlns="http://www.w3.org/2000/svg" viewBox="0 0 28 28"><defs><style>.cls-1{fill:#1d89fe;}</style></defs><title>智慧教室icon</title><path class="cls-1" d="M20.49,19.75h-4a1,1,0,0,0,0,2h4a1,1,0,0,0,0-2Z"/><path class="cls-1" d="M19.5,15.75H8.5a5.27,5.27,0,0,0-5.5,5,5.27,5.27,0,0,0,5.5,5h11a5.27,5.27,0,0,0,5.5-5A5.27,5.27,0,0,0,19.5,15.75Zm0,8H8.5a3.28,3.28,0,0,1-3.5-3,3.28,3.28,0,0,1,3.5-3h11a3.28,3.28,0,0,1,3.5,3A3.28,3.28,0,0,1,19.5,23.75Z"/><path class="cls-1" d="M14,14.25a6,6,0,1,0-6-6A6,6,0,0,0,14,14.25Zm0-10a4,4,0,1,1-4,4A4,4,0,0,1,14,4.25Z"/></svg>