<svg id="图层_1" data-name="图层 1" xmlns="http://www.w3.org/2000/svg" viewBox="0 0 28 28"><defs><style>.cls-1{fill:#ccc;}</style></defs><title>智慧教室icon</title><path class="cls-1" d="M24,6.55H18a1,1,0,0,1,0-2h6a1,1,0,0,1,0,2Z"/><path class="cls-1" d="M24,14.55H4a1,1,0,0,1,0-2H24a1,1,0,0,1,0,2Z"/><path class="cls-1" d="M22,8.55H15v2h7a1,1,0,0,1,1,1v9a1,1,0,0,1-1,1H6a1,1,0,0,1-1-1v-12H3v12a3,3,0,0,0,3,3H22a3,3,0,0,0,3-3v-9A3,3,0,0,0,22,8.55Z"/><path class="cls-1" d="M5,7.55a1,1,0,0,1,1-1h6l2,4h2.24L13.79,5.66l-.55-1.11H6a3,3,0,0,0-3,3v3H5Z"/></svg>