<?xml version="1.0" encoding="utf-8"?>
<!-- Generator: Adobe Illustrator 21.0.0, SVG Export Plug-In . SVG Version: 6.00 Build 0)  -->
<svg version="1.1" id="图层_1" xmlns="http://www.w3.org/2000/svg" xmlns:xlink="http://www.w3.org/1999/xlink" x="0px" y="0px"
	 viewBox="0 0 28 28" style="enable-background:new 0 0 28 28;" xml:space="preserve">
<style type="text/css">
	.st0{fill:#333333;}
	.st1{opacity:0.1;}
	.st2{fill:#F2F2F2;}
	.st3{fill:none;stroke:#333333;stroke-width:0.1;stroke-miterlimit:10;}
	.st4{fill:#ccc;}
	.st5{fill:none;stroke:#CCCCCC;stroke-width:2;stroke-linecap:round;stroke-miterlimit:10;}
	.st6{fill:none;stroke:#CCCCCC;stroke-width:2;stroke-miterlimit:10;}
	.st7{fill:none;stroke:#CCCCCC;stroke-width:2;stroke-linecap:round;stroke-linejoin:round;stroke-miterlimit:10;}
	.st8{fill:#FFFFFF;stroke:#CCCCCC;stroke-width:2;stroke-linecap:round;stroke-miterlimit:10;}
	.st9{fill:none;stroke:#CCCCCC;stroke-linecap:round;stroke-miterlimit:10;}
	.st10{fill:none;stroke:#CCCCCC;stroke-width:0.1;stroke-miterlimit:10;}
</style>
<g>
	<path class="st4" d="M14,11.2c-0.6,0-1,0.4-1,1v2.6c0,0.6,0.4,1,1,1s1-0.4,1-1v-2.6C15,11.6,14.6,11.2,14,11.2z"/>
	<path class="st4" d="M14,17c-0.6,0-1,0.4-1,1v0.1c0,0.6,0.4,1,1,1s1-0.4,1-1V18C15,17.4,14.6,17,14,17z"/>
	<path class="st4" d="M23.4,17.8L16.6,6.4C16,5.5,15.1,4.9,14,4.9s-2,0.5-2.6,1.5L4.6,17.8h0c-0.6,0.9-0.6,2.1,0,3
		c0.5,1,1.5,1.5,2.6,1.5h13.6c1.1,0,2.1-0.6,2.6-1.5C23.9,19.8,23.9,18.7,23.4,17.8z M21.7,19.8c-0.1,0.2-0.3,0.5-0.9,0.5H7.2
		c-0.5,0-0.8-0.4-0.9-0.5c-0.1-0.2-0.3-0.6,0-1h0l6.8-11.4C13.4,7,13.8,6.9,14,6.9s0.6,0,0.9,0.5l6.8,11.4
		C21.9,19.3,21.8,19.7,21.7,19.8z"/>
</g>
</svg>
