<svg id="图层_1" data-name="图层 1" xmlns="http://www.w3.org/2000/svg" viewBox="0 0 28 28"><defs><style>.cls-1{fill:#fff;}</style></defs><title>智慧教室icon</title><path class="cls-1" d="M22,5.5a1,1,0,0,1,1,1v11a1,1,0,0,1-1,1H6a1,1,0,0,1-1-1V6.5a1,1,0,0,1,1-1H22m0-2H6a3,3,0,0,0-3,3v11a3,3,0,0,0,3,3H22a3,3,0,0,0,3-3V6.5a3,3,0,0,0-3-3Z"/><path class="cls-1" d="M19,24.5H9a1,1,0,0,1,0-2H19a1,1,0,0,1,0,2Z"/><path class="cls-1" d="M13.81,9.6l2.46,1.7a.81.81,0,0,1,0,1.33l-2.46,1.7a.77.77,0,0,1-1.2-.66v-3.4A.77.77,0,0,1,13.81,9.6Z"/></svg>