<?xml version="1.0" encoding="utf-8"?>
<!-- Generator: Adobe Illustrator 21.0.0, SVG Export Plug-In . SVG Version: 6.00 Build 0)  -->
<svg version="1.1" id="图层_1" xmlns="http://www.w3.org/2000/svg" xmlns:xlink="http://www.w3.org/1999/xlink" x="0px" y="0px"
	 viewBox="0 0 28 28" style="enable-background:new 0 0 28 28;" xml:space="preserve">
<style type="text/css">
	.st0{fill:#333333;}
	.st1{opacity:0.1;}
	.st2{fill:#F2F2F2;}
	.st3{fill:none;stroke:#333333;stroke-width:0.1;stroke-miterlimit:10;}
	.st4{fill:#1988ff;}
	.st5{fill:none;stroke:#CCCCCC;stroke-width:2;stroke-linecap:round;stroke-miterlimit:10;}
	.st6{fill:none;stroke:#CCCCCC;stroke-width:2;stroke-miterlimit:10;}
	.st7{fill:none;stroke:#CCCCCC;stroke-width:2;stroke-linecap:round;stroke-linejoin:round;stroke-miterlimit:10;}
	.st8{fill:#FFFFFF;stroke:#CCCCCC;stroke-width:2;stroke-linecap:round;stroke-miterlimit:10;}
	.st9{fill:none;stroke:#CCCCCC;stroke-linecap:round;stroke-miterlimit:10;}
	.st10{fill:none;stroke:#CCCCCC;stroke-width:0.1;stroke-miterlimit:10;}
</style>
<g>
	<path class="st4" d="M13.3,17.1c0.4,0.4,1,0.4,1.4,0l0,0c0,0,0,0,0,0l2.8-2.8c0.4-0.4,0.4-1,0-1.4c-0.2-0.2-0.5-0.3-0.7-0.3
		s-0.5,0.1-0.7,0.3L15,13.9V5.9c0-0.6-0.4-1-1-1s-1,0.4-1,1V14l-1.1-1.1c-0.2-0.2-0.5-0.3-0.7-0.3s-0.5,0.1-0.7,0.3
		c-0.4,0.4-0.4,1,0,1.4L13.3,17.1z"/>
	<path class="st4" d="M21.2,8.7c-0.6,0-1,0.4-1,1s0.4,1,1,1c0.5,0,0.8,0.4,0.8,0.8v8.3c0,0.5-0.4,0.8-0.8,0.8H6.9
		c-0.5,0-0.8-0.4-0.8-0.8v-8.3c0-0.5,0.4-0.8,0.8-0.8c0.6,0,1-0.4,1-1s-0.4-1-1-1c-1.6,0-2.8,1.3-2.8,2.8v8.3c0,1.6,1.3,2.8,2.8,2.8
		h14.3c1.6,0,2.8-1.3,2.8-2.8v-8.3C24.1,9.9,22.8,8.7,21.2,8.7z"/>
</g>
</svg>
