<?xml version="1.0" encoding="utf-8"?>
<!-- Generator: Adobe Illustrator 21.0.0, SVG Export Plug-In . SVG Version: 6.00 Build 0)  -->
<svg version="1.1" id="图层_1" xmlns="http://www.w3.org/2000/svg" xmlns:xlink="http://www.w3.org/1999/xlink" x="0px" y="0px"
	 viewBox="0 0 28 28" style="enable-background:new 0 0 28 28;" xml:space="preserve">
<style type="text/css">
	.st0{fill:#CCCCCC;}
	.st1{fill:none;stroke:#CCCCCC;stroke-width:2;stroke-linecap:round;stroke-miterlimit:10;}
	.st2{fill:none;stroke:#CCCCCC;stroke-width:2;stroke-miterlimit:10;}
	.st3{fill:none;stroke:#CCCCCC;stroke-width:2;stroke-linecap:round;stroke-linejoin:round;stroke-miterlimit:10;}
	.st4{fill:#FFFFFF;stroke:#CCCCCC;stroke-width:2;stroke-linecap:round;stroke-miterlimit:10;}
	.st5{fill:none;stroke:#CCCCCC;stroke-linecap:round;stroke-miterlimit:10;}
</style>
<g>
	<path class="st0" d="M16,13.4h-1.5V9.9c0-0.3-0.2-0.5-0.5-0.5s-0.5,0.2-0.5,0.5v4c0,0.3,0.2,0.5,0.5,0.5h2c0.3,0,0.5-0.2,0.5-0.5
		S16.3,13.4,16,13.4z"/>
	<path class="st0" d="M14,6.5c-4.1,0-7.5,3.4-7.5,7.5s3.4,7.5,7.5,7.5s7.5-3.4,7.5-7.5S18.1,6.5,14,6.5z M14,20.5
		c-3.6,0-6.5-2.9-6.5-6.5s2.9-6.5,6.5-6.5s6.5,2.9,6.5,6.5S17.6,20.5,14,20.5z"/>
</g>
</svg>
