<?xml version="1.0" encoding="utf-8"?>
<!-- Generator: Adobe Illustrator 21.0.0, SVG Export Plug-In . SVG Version: 6.00 Build 0)  -->
<svg version="1.1" id="图层_1" xmlns="http://www.w3.org/2000/svg" xmlns:xlink="http://www.w3.org/1999/xlink" x="0px" y="0px"
	 viewBox="0 0 28 28" style="enable-background:new 0 0 28 28;" xml:space="preserve">
<style type="text/css">
	.st0{fill:#333333;}
	.st1{opacity:0.1;}
	.st2{fill:#F2F2F2;}
	.st3{fill:none;stroke:#333333;stroke-width:0.1;stroke-miterlimit:10;}
	.st4{fill:#CCCCCC;}
	.st5{fill:none;stroke:#CCCCCC;stroke-width:2;stroke-linecap:round;stroke-miterlimit:10;}
	.st6{fill:none;stroke:#CCCCCC;stroke-width:2;stroke-miterlimit:10;}
	.st7{fill:none;stroke:#CCCCCC;stroke-width:2;stroke-linecap:round;stroke-linejoin:round;stroke-miterlimit:10;}
	.st8{fill:#FFFFFF;stroke:#CCCCCC;stroke-width:2;stroke-linecap:round;stroke-miterlimit:10;}
	.st9{fill:none;stroke:#CCCCCC;stroke-linecap:round;stroke-miterlimit:10;}
	.st10{fill:none;stroke:#CCCCCC;stroke-width:0.1;stroke-miterlimit:10;}
</style>
<path class="st4" d="M14.1,6c0.3,0,0.6,0.2,0.8,0.5l1.8,3.8c0.1,0.3,0.4,0.5,0.7,0.5l4,0.6c0.7,0.1,1,1,0.5,1.5l-2.9,3
	c-0.2,0.2-0.3,0.5-0.2,0.8l0.7,4.2c0.1,0.6-0.4,1-0.9,1c-0.1,0-0.3,0-0.4-0.1l-3.5-1.9c-0.1-0.1-0.3-0.1-0.4-0.1
	c-0.1,0-0.3,0-0.4,0.1l-3.5,1.9C10,22,9.8,22,9.7,22c-0.5,0-1-0.5-0.9-1l0.7-4.2c0-0.3,0-0.6-0.2-0.8l-2.9-3
	c-0.5-0.5-0.2-1.4,0.5-1.5l4-0.6c0.3,0,0.5-0.2,0.7-0.5l1.8-3.8C13.4,6.2,13.7,6,14.1,6 M14.1,4c-1.1,0-2.1,0.6-2.6,1.7L9.9,8.9
	L6.5,9.4c-1.1,0.2-2,0.9-2.3,1.9s-0.1,2.2,0.7,3l2.6,2.6l-0.6,3.7c-0.1,0.8,0.1,1.7,0.6,2.3c0.6,0.7,1.4,1,2.2,1
	c0.5,0,1-0.1,1.4-0.4l3-1.6l3,1.6c0.4,0.2,0.9,0.4,1.4,0.4c0.9,0,1.7-0.4,2.2-1c0.5-0.6,0.8-1.5,0.6-2.3l-0.6-3.7l2.6-2.6
	c0.8-0.8,1-1.9,0.7-3c-0.3-1-1.2-1.8-2.3-1.9l-3.4-0.5l-1.5-3.2C16.2,4.6,15.2,4,14.1,4L14.1,4z"/>
</svg>
