<?xml version="1.0" encoding="utf-8"?>
<!-- Generator: Adobe Illustrator 21.0.0, SVG Export Plug-In . SVG Version: 6.00 Build 0)  -->
<svg version="1.1" id="图层_1" xmlns="http://www.w3.org/2000/svg" xmlns:xlink="http://www.w3.org/1999/xlink" x="0px" y="0px"
	 viewBox="0 0 28 28" style="enable-background:new 0 0 28 28;" xml:space="preserve">
<style type="text/css">
	.st0{fill:#CCCCCC;}
	.st1{fill:none;stroke:#CCCCCC;stroke-width:2;stroke-linecap:round;stroke-miterlimit:10;}
	.st2{fill:none;stroke:#CCCCCC;stroke-width:2;stroke-miterlimit:10;}
	.st3{fill:none;stroke:#CCCCCC;stroke-width:2;stroke-linecap:round;stroke-linejoin:round;stroke-miterlimit:10;}
	.st4{fill:#FFFFFF;stroke:#CCCCCC;stroke-width:2;stroke-linecap:round;stroke-miterlimit:10;}
	.st5{fill:none;stroke:#CCCCCC;stroke-linecap:round;stroke-miterlimit:10;}
</style>
<g>
	<path class="st0" d="M18.8,24c-0.3,0-0.7-0.1-1-0.3l-3.9-2.1l-3.9,2.1c-0.7,0.4-1.5,0.3-2.2-0.1c-0.7-0.5-1-1.3-0.9-2.1l0.7-4.6
		l-3.2-3.2C4,13.1,3.8,12.2,4,11.4c0.3-0.8,0.9-1.3,1.7-1.4l4.3-0.7L12,5.2C12.4,4.5,13.1,4,13.9,4s1.6,0.5,1.9,1.2l1.9,4.1l4.3,0.7
		c0.8,0.1,1.4,0.7,1.7,1.4c0.3,0.8,0.1,1.6-0.5,2.2l-3.2,3.2l0.7,4.6c0.1,0.8-0.2,1.7-0.9,2.1C19.6,23.9,19.2,24,18.8,24z
		 M13.9,19.3l4.8,2.7c0.1,0,0.2-0.1,0.2-0.2L18,16.2l3.9-3.9c0.1-0.1,0.1-0.2,0-0.2c0-0.1-0.1-0.1-0.1-0.1l-5.4-0.8L14,6.1
		C14,6,13.9,6,13.8,6.1l-2.4,5.1L6,12c0,0-0.1,0-0.1,0.1c0,0,0,0.1,0,0.2l3.9,3.9l-0.9,5.6C8.9,21.9,9,22,9,22L13.9,19.3z"/>
</g>
</svg>
