<?xml version="1.0" encoding="utf-8"?>
<!-- Generator: Adobe Illustrator 21.0.0, SVG Export Plug-In . SVG Version: 6.00 Build 0)  -->
<svg version="1.1" id="图层_1" xmlns="http://www.w3.org/2000/svg" xmlns:xlink="http://www.w3.org/1999/xlink" x="0px" y="0px"
	 viewBox="0 0 28 28" style="enable-background:new 0 0 28 28;" xml:space="preserve">
<style type="text/css">
	.st0{fill:#CCCCCC;}
	.st1{fill:none;stroke:#CCCCCC;stroke-width:2;stroke-linecap:round;stroke-miterlimit:10;}
	.st2{fill:none;stroke:#CCCCCC;stroke-width:2;stroke-miterlimit:10;}
	.st3{fill:none;stroke:#CCCCCC;stroke-width:2;stroke-linecap:round;stroke-linejoin:round;stroke-miterlimit:10;}
	.st4{fill:#FFFFFF;stroke:#CCCCCC;stroke-width:2;stroke-linecap:round;stroke-miterlimit:10;}
	.st5{fill:none;stroke:#CCCCCC;stroke-linecap:round;stroke-miterlimit:10;}
</style>
<g>
	<path class="st0" d="M14,16c-0.6,0-1,0.4-1,1v2c0,0.6,0.4,1,1,1s1-0.4,1-1v-2C15,16.4,14.5,16,14,16z"/>
	<path class="st0" d="M20,11V9c0-3.3-2.7-6-6-6S8,5.7,8,9v2c-1.7,0-3,1.3-3,3v8c0,1.7,1.3,3,3,3h12c1.7,0,3-1.3,3-3v-8
		C23,12.3,21.7,11,20,11z M10,9c0-2.2,1.8-4,4-4s4,1.8,4,4v2h-8V9z M21,22c0,0.6-0.4,1-1,1H8c-0.6,0-1-0.4-1-1v-8c0-0.6,0.4-1,1-1
		h12c0.6,0,1,0.4,1,1V22z"/>
</g>
</svg>
