<?xml version="1.0" encoding="utf-8"?>
<!-- Generator: Adobe Illustrator 21.0.0, SVG Export Plug-In . SVG Version: 6.00 Build 0)  -->
<svg version="1.1" id="图层_1" xmlns="http://www.w3.org/2000/svg" xmlns:xlink="http://www.w3.org/1999/xlink" x="0px" y="0px"
	 viewBox="0 0 28 28" style="enable-background:new 0 0 28 28;" xml:space="preserve">
<style type="text/css">
	.st0{fill:#333333;}
	.st1{opacity:0.1;}
	.st2{fill:#F2F2F2;}
	.st3{fill:none;stroke:#333333;stroke-width:0.1;stroke-miterlimit:10;}
	.st4{fill:#2185ff;}
	.st5{fill:none;stroke:#CCCCCC;stroke-width:2;stroke-linecap:round;stroke-miterlimit:10;}
	.st6{fill:none;stroke:#CCCCCC;stroke-width:2;stroke-miterlimit:10;}
	.st7{fill:none;stroke:#CCCCCC;stroke-width:2;stroke-linecap:round;stroke-linejoin:round;stroke-miterlimit:10;}
	.st8{fill:#FFFFFF;stroke:#CCCCCC;stroke-width:2;stroke-linecap:round;stroke-miterlimit:10;}
	.st9{fill:none;stroke:#CCCCCC;stroke-linecap:round;stroke-miterlimit:10;}
	.st10{fill:none;stroke:#CCCCCC;stroke-width:0.1;stroke-miterlimit:10;}
</style>
<g>
	<path class="st4" d="M18.5,14.5l-3.8-3.8c-0.4-0.4-1-0.4-1.4,0l0,0c0,0,0,0,0,0l-3.8,3.8c-0.4,0.4-0.4,1,0,1.4
		c0.2,0.2,0.5,0.3,0.7,0.3s0.5-0.1,0.7-0.3l2.1-2.1V22c0,0.6,0.4,1,1,1s1-0.4,1-1v-8.2l2.1,2.1c0.2,0.2,0.5,0.3,0.7,0.3
		s0.5-0.1,0.7-0.3C18.9,15.6,18.9,14.9,18.5,14.5z"/>
	<path class="st4" d="M10.7,8.6h6.6c0.6,0,1-0.4,1-1s-0.4-1-1-1h-6.6c-0.6,0-1,0.4-1,1S10.1,8.6,10.7,8.6z"/>
</g>
</svg>
