<?xml version="1.0" encoding="utf-8"?>
<!-- Generator: Adobe Illustrator 21.0.0, SVG Export Plug-In . SVG Version: 6.00 Build 0)  -->
<svg version="1.1" id="图层_1" xmlns="http://www.w3.org/2000/svg" xmlns:xlink="http://www.w3.org/1999/xlink" x="0px" y="0px"
	 viewBox="0 0 28 28" style="enable-background:new 0 0 28 28;" xml:space="preserve">
<style type="text/css">
	.st0{fill:#333333;}
	.st1{opacity:0.1;}
	.st2{fill:#F2F2F2;}
	.st3{fill:none;stroke:#333333;stroke-width:0.1;stroke-miterlimit:10;}
	.st4{fill:#2185ff;}
	.st5{fill:none;stroke:#CCCCCC;stroke-width:2;stroke-linecap:round;stroke-miterlimit:10;}
	.st6{fill:none;stroke:#CCCCCC;stroke-width:2;stroke-miterlimit:10;}
	.st7{fill:none;stroke:#CCCCCC;stroke-width:2;stroke-linecap:round;stroke-linejoin:round;stroke-miterlimit:10;}
	.st8{fill:#FFFFFF;stroke:#CCCCCC;stroke-width:2;stroke-linecap:round;stroke-miterlimit:10;}
	.st9{fill:none;stroke:#CCCCCC;stroke-linecap:round;stroke-miterlimit:10;}
	.st10{fill:none;stroke:#CCCCCC;stroke-width:0.1;stroke-miterlimit:10;}
</style>
<g>
	<path class="st4" d="M9.5,15l3.8,3.8c0.4,0.4,1,0.4,1.4,0l0,0c0,0,0,0,0,0l3.8-3.8c0.4-0.4,0.4-1,0-1.4c-0.2-0.2-0.5-0.3-0.7-0.3
		s-0.5,0.1-0.7,0.3L15,15.7V7.6c0-0.6-0.4-1-1-1s-1,0.4-1,1v8.2l-2.1-2.1c-0.2-0.2-0.5-0.3-0.7-0.3s-0.5,0.1-0.7,0.3
		C9.1,14,9.1,14.6,9.5,15z"/>
	<path class="st4" d="M17.3,21h-6.6c-0.6,0-1,0.4-1,1s0.4,1,1,1h6.6c0.6,0,1-0.4,1-1S17.9,21,17.3,21z"/>
</g>
</svg>
