<svg id="图层_1" data-name="图层 1" xmlns="http://www.w3.org/2000/svg" viewBox="0 0 28 28"><defs><style>.cls-1{fill:#ccc;}</style></defs><title>智慧教室icon</title><path class="cls-1" d="M16.92,18.46h-6a1,1,0,0,0,0,2h6a1,1,0,0,0,0-2Z"/><path class="cls-1" d="M10.92,15.13h6a1,1,0,0,0,0-2h-6a1,1,0,0,0,0,2Z"/><path class="cls-1" d="M21,3H10.2a2,2,0,0,0-1.4.58L7.3,5,5.67,6.56a2,2,0,0,0-.6,1.18,2,2,0,0,0,0,.38V23a2,2,0,0,0,2,2H21a2,2,0,0,0,2-2V5A2,2,0,0,0,21,3ZM8.68,6.49,10.29,5V8H7.12ZM21,23H7V10h3.26a2,2,0,0,0,2-2V5H21Z"/></svg>