<?xml version="1.0" encoding="utf-8"?>
<!-- Generator: Adobe Illustrator 21.0.0, SVG Export Plug-In . SVG Version: 6.00 Build 0)  -->
<svg version="1.1" id="图层_1" xmlns="http://www.w3.org/2000/svg" xmlns:xlink="http://www.w3.org/1999/xlink" x="0px" y="0px"
	 viewBox="0 0 28 28" style="enable-background:new 0 0 28 28;" xml:space="preserve">
<style type="text/css">
	.st0{fill:#333333;}
	.st1{opacity:0.1;}
	.st2{fill:#F2F2F2;}
	.st3{fill:none;stroke:#333333;stroke-width:0.1;stroke-miterlimit:10;}
	.st4{fill:#CCCCCC;}
	.st5{fill:none;stroke:#CCCCCC;stroke-width:2;stroke-linecap:round;stroke-miterlimit:10;}
	.st6{fill:none;stroke:#CCCCCC;stroke-width:2;stroke-miterlimit:10;}
	.st7{fill:none;stroke:#CCCCCC;stroke-width:2;stroke-linecap:round;stroke-linejoin:round;stroke-miterlimit:10;}
	.st8{fill:#FFFFFF;stroke:#CCCCCC;stroke-width:2;stroke-linecap:round;stroke-miterlimit:10;}
	.st9{fill:none;stroke:#CCCCCC;stroke-linecap:round;stroke-miterlimit:10;}
	.st10{fill:none;stroke:#CCCCCC;stroke-width:0.1;stroke-miterlimit:10;}
</style>
<g>
	<path class="st4" d="M15.9,11.9c0.6,0,1-0.4,1-1V9.3c0-0.6-0.4-1-1-1c-0.6,0-1,0.4-1,1v1.6C14.9,11.5,15.4,11.9,15.9,11.9z"/>
	<path class="st4" d="M21,5h-1H8H7.3C5.5,5,4,6.5,4,8.3v11.5C4,21.5,5.5,23,7.3,23h13.5c1.8,0,3.3-1.5,3.3-3.3V8C24,6.3,22.6,5,21,5
		z M18,7v6h-8V7H18z M22,19.7c0,0.7-0.6,1.3-1.3,1.3H7.3C6.6,21,6,20.4,6,19.7V8.3C6,7.6,6.6,7,7.3,7H8v8h12V7h1c0.6,0,1,0.4,1,1
		V19.7z"/>
</g>
</svg>
