<svg id="图层_1" data-name="图层 1" xmlns="http://www.w3.org/2000/svg" viewBox="0 0 28 28"><defs><style>.cls-1{fill:#ccc;}</style></defs><title>智慧教室icon</title><path class="cls-1" d="M12,22.06a1,1,0,0,1-1-1v-6.8a1,1,0,0,1,2,0v6.8A1,1,0,0,1,12,22.06Z"/><path class="cls-1" d="M16,22.06a1,1,0,0,1-1-1v-6.8a1,1,0,0,1,2,0v6.8A1,1,0,0,1,16,22.06Z"/><path class="cls-1" d="M23.9,22.91H22V12.1h.87a2,2,0,0,0,1-3.75L15,3.45a2,2,0,0,0-1.93,0l-8.9,4.9a2,2,0,0,0,1,3.75h1V22.91h-2a1,1,0,0,0,0,2H23.9a1,1,0,0,0,0-2ZM14,5.2l8.9,4.9H5.1ZM8.05,12.1H20V22.91h-12Z"/></svg>