<?xml version="1.0" encoding="utf-8"?>
<!-- Generator: Adobe Illustrator 21.0.0, SVG Export Plug-In . SVG Version: 6.00 Build 0)  -->
<svg version="1.1" id="图层_1" xmlns="http://www.w3.org/2000/svg" xmlns:xlink="http://www.w3.org/1999/xlink" x="0px" y="0px"
	 viewBox="0 0 28 28" style="enable-background:new 0 0 28 28;" xml:space="preserve">
<style type="text/css">
	.st0{fill:#CCCCCC;}
	.st1{fill:none;stroke:#CCCCCC;stroke-width:2;stroke-linecap:round;stroke-miterlimit:10;}
	.st2{fill:none;stroke:#CCCCCC;stroke-width:2;stroke-miterlimit:10;}
	.st3{fill:none;stroke:#CCCCCC;stroke-width:2;stroke-linecap:round;stroke-linejoin:round;stroke-miterlimit:10;}
	.st4{fill:#FFFFFF;stroke:#CCCCCC;stroke-width:2;stroke-linecap:round;stroke-miterlimit:10;}
	.st5{fill:none;stroke:#CCCCCC;stroke-linecap:round;stroke-miterlimit:10;}
</style>
<g>
	<path class="st0" d="M13.9,22.2c-2.6,0-6.5-6.5-6.5-9.9c0-3.6,2.9-6.5,6.5-6.5s6.5,2.9,6.5,6.5C20.4,15.8,16.6,22.2,13.9,22.2z
		 M13.9,6.8c-3,0-5.5,2.5-5.5,5.5c0,3.2,3.8,8.9,5.5,8.9c1.8,0,5.5-5.6,5.5-8.9C19.4,9.3,17,6.8,13.9,6.8z"/>
</g>
<g>
	<path class="st0" d="M13.9,14.8c-1.4,0-2.5-1.1-2.5-2.5s1.1-2.5,2.5-2.5s2.5,1.1,2.5,2.5S15.3,14.8,13.9,14.8z M13.9,10.8
		c-0.8,0-1.5,0.7-1.5,1.5s0.7,1.5,1.5,1.5s1.5-0.7,1.5-1.5S14.7,10.8,13.9,10.8z"/>
</g>
</svg>
