<?xml version="1.0" encoding="utf-8"?>
<!-- Generator: Adobe Illustrator 21.0.0, SVG Export Plug-In . SVG Version: 6.00 Build 0)  -->
<svg version="1.1" id="图层_1" xmlns="http://www.w3.org/2000/svg" xmlns:xlink="http://www.w3.org/1999/xlink" x="0px" y="0px"
	 viewBox="0 0 28 28" style="enable-background:new 0 0 28 28;" xml:space="preserve">
<style type="text/css">
	.st0{fill:#2185ff;}
	.st1{fill:none;stroke:#2185ff;stroke-width:2;stroke-linecap:round;stroke-miterlimit:10;}
	.st2{fill:none;stroke:#2185ff;stroke-width:2;stroke-miterlimit:10;}
	.st3{fill:none;stroke:#2185ff;stroke-width:2;stroke-linecap:round;stroke-linejoin:round;stroke-miterlimit:10;}
	.st4{fill:#FFFFFF;stroke:#2185ff;stroke-width:2;stroke-linecap:round;stroke-miterlimit:10;}
	.st5{fill:none;stroke:#2185ff;stroke-linecap:round;stroke-miterlimit:10;}
</style>
<path class="st0" d="M13.9,5c-5,0-9,4-9,9s4,9,9,9s9-4,9-9S18.9,5,13.9,5z M18.8,12.1l-5.3,5.3c-0.2,0.2-0.5,0.3-0.7,0.3
	s-0.5-0.1-0.7-0.3L9,14.3c-0.4-0.4-0.4-1,0-1.4s1-0.4,1.4,0l2.4,2.4l4.6-4.6c0.4-0.4,1-0.4,1.4,0S19.2,11.7,18.8,12.1z"/>
</svg>
