<svg id="图层_1" data-name="图层 1" xmlns="http://www.w3.org/2000/svg" viewBox="0 0 28 28"><defs><style>.cls-1{fill:#ccc;}</style></defs><title>智慧教室icon</title><path class="cls-1" d="M6,10.25a3,3,0,0,0,2.8-2h15a1,1,0,0,0,0-2H8.8a3,3,0,1,0-2.83,4Zm0-4a1,1,0,1,1-1,1A1,1,0,0,1,6,6.25Z"/><path class="cls-1" d="M23.77,19.79H8.8a3,3,0,1,0,0,2h15a1,1,0,0,0,0-2ZM6,21.75a1,1,0,1,1,1-1A1,1,0,0,1,6,21.75Z"/><path class="cls-1" d="M4,14.75H16.32a3,3,0,0,0,5.63,0h2a1,1,0,0,0,0-2H22a3,3,0,0,0-5.63,0H4a1,1,0,0,0,0,2Zm15.16-2a1,1,0,1,1-1,1A1,1,0,0,1,19.14,12.75Z"/></svg>