<svg id="图层_1" data-name="图层 1" xmlns="http://www.w3.org/2000/svg" viewBox="0 0 28 28"><defs><style>.cls-1{fill:#ccc;}</style></defs><title>智慧教室icon</title><path class="cls-1" d="M16.1,5.06h0a3,3,0,0,0-1.34.32L8.63,8.44H6.13a3,3,0,0,0-3,3v5a3,3,0,0,0,3,3h2.5l6.13,3.07a3,3,0,0,0,4.34-2.68V8.06A3,3,0,0,0,16.1,5.06Zm-11,11.38v-5a1,1,0,0,1,1-1h1v7h-1A1,1,0,0,1,5.13,16.44Zm12,3.38a1,1,0,0,1-1.45.89L9.13,17.46h0v-7h0l6.52-3.26a1,1,0,0,1,1.45.89Z"/><path class="cls-1" d="M22.63,9.62a1,1,0,0,0-1.2,1.6,3.46,3.46,0,0,1,0,5.53,1,1,0,1,0,1.21,1.59A5.42,5.42,0,0,0,24.82,14,5.48,5.48,0,0,0,22.63,9.62Z"/></svg>