<svg id="图层_1" data-name="图层 1" xmlns="http://www.w3.org/2000/svg" viewBox="0 0 28 28"><defs><style>.cls-1{fill:#1d89fe;}</style></defs><title>智慧教室icon</title><path class="cls-1" d="M25.91,9.21a1,1,0,0,0-1,1v6a1,1,0,0,0,2,0v-6A1,1,0,0,0,25.91,9.21Z"/><path class="cls-1" d="M26.47,18.63a.76.76,0,0,0-.18-.09l-.18-.06a1,1,0,0,0-1.2,1,1,1,0,0,0,.08.38,1.16,1.16,0,0,0,.21.33,1.05,1.05,0,0,0,.71.29,1,1,0,0,0,.71-.29,1,1,0,0,0,0-1.42A1.55,1.55,0,0,0,26.47,18.63Z"/><path class="cls-1" d="M25.57,8.32l-10.9-3.9a2,2,0,0,0-1.35,0L2.42,8.32a2,2,0,0,0,0,3.77L6,13.39v8.31a2,2,0,0,0,2,2H20a2,2,0,0,0,2-2V13.35l3.52-1.26a2,2,0,0,0,0-3.77ZM20,21.69H8V14.1L13.32,16a2,2,0,0,0,1.35,0L20,14.06ZM14,14.11l-10.9-3.9L14,6.31l10.9,3.9Z"/></svg>