<svg id="图层_1" data-name="图层 1" xmlns="http://www.w3.org/2000/svg" viewBox="0 0 28 28"><defs><style>.cls-1{fill:#fff;}</style></defs><title>智慧教室icon</title><path class="cls-1" d="M20.3,19.67,19.55,17a3.3,3.3,0,0,0-3.1-2.55H14a1,1,0,0,0,0,2h2.42a1.34,1.34,0,0,1,1.17,1.09l.75,2.67a2,2,0,0,1-.3,1.75,1.13,1.13,0,0,1-.87.49H5.7A1.13,1.13,0,0,1,4.83,22a2,2,0,0,1-.3-1.75l.75-2.67a1.34,1.34,0,0,1,1.17-1.09H9.14a1,1,0,0,0,0-2H6.45A3.3,3.3,0,0,0,3.36,17l-.75,2.67a4,4,0,0,0,.63,3.5A3.1,3.1,0,0,0,5.7,24.45H17.2a3.1,3.1,0,0,0,2.47-1.28A4,4,0,0,0,20.3,19.67Z"/><path class="cls-1" d="M11.45,13.45a5,5,0,1,0-5-5A5,5,0,0,0,11.45,13.45Zm0-8a3,3,0,1,1-3,3A3,3,0,0,1,11.45,5.45Z"/><path class="cls-1" d="M25.45,5.45a1,1,0,0,0-1-1h-5a1,1,0,0,0,0,2h5A1,1,0,0,0,25.45,5.45Z"/><path class="cls-1" d="M24.25,13.68a1,1,0,0,0-1.38.33l-4.2,6.81a1,1,0,1,0,1.7,1.05l4.2-6.81A1,1,0,0,0,24.25,13.68Z"/><path class="cls-1" d="M24.45,8.45h-3a1,1,0,1,0,0,2h3a1,1,0,1,0,0-2Z"/></svg>