<?xml version="1.0" encoding="utf-8"?>
<!-- Generator: Adobe Illustrator 21.0.0, SVG Export Plug-In . SVG Version: 6.00 Build 0)  -->
<svg version="1.1" id="图层_1" xmlns="http://www.w3.org/2000/svg" xmlns:xlink="http://www.w3.org/1999/xlink" x="0px" y="0px"
	 viewBox="0 0 28 28" style="enable-background:new 0 0 28 28;" xml:space="preserve">
<style type="text/css">
	.st0{fill:#CCCCCC;}
	.st1{fill:none;stroke:#CCCCCC;stroke-width:2;stroke-linecap:round;stroke-miterlimit:10;}
	.st2{fill:none;stroke:#CCCCCC;stroke-width:2;stroke-miterlimit:10;}
	.st3{fill:none;stroke:#CCCCCC;stroke-width:2;stroke-linecap:round;stroke-linejoin:round;stroke-miterlimit:10;}
	.st4{fill:#FFFFFF;stroke:#CCCCCC;stroke-width:2;stroke-linecap:round;stroke-miterlimit:10;}
	.st5{fill:none;stroke:#CCCCCC;stroke-linecap:round;stroke-miterlimit:10;}
</style>
<g>
	<path class="st0" d="M21.1,9.1l-6.6-2c-0.3-0.1-0.7-0.1-0.9,0L7,9.1c-0.6,0.2-1.1,0.8-1.1,1.4c0,0.7,0.4,1.2,1.1,1.4l1.5,0.5
		c-0.1,0.1-0.1,0.2-0.1,0.3v4.9c0,1.4,1.1,2.5,2.5,2.5h6.3c1.4,0,2.5-1.1,2.5-2.5v-4.9c0-0.1,0-0.2-0.1-0.3l1.5-0.5
		c0.6-0.2,1.1-0.8,1.1-1.4C22.2,9.9,21.8,9.3,21.1,9.1z M18.7,12.7v4.9c0,0.8-0.7,1.5-1.5,1.5h-6.3c-0.8,0-1.5-0.7-1.5-1.5v-4.9
		c0,0,0,0,0-0.1l4.2,1.3C13.7,14,13.9,14,14,14c0.2,0,0.3,0,0.5-0.1L18.7,12.7C18.7,12.7,18.7,12.7,18.7,12.7z M20.8,11l-6.6,2
		c-0.1,0-0.2,0-0.3,0l-6.6-2c-0.3-0.1-0.4-0.4-0.4-0.5s0-0.4,0.4-0.5l6.6-2C13.9,8,14,8,14,8c0.1,0,0.1,0,0.2,0l6.6,2
		c0.3,0.1,0.4,0.4,0.4,0.5S21.2,10.9,20.8,11z"/>
	<path class="st0" d="M21.4,12.7c-0.3,0-0.5,0.2-0.5,0.5v4.2c0,0.3,0.2,0.5,0.5,0.5s0.5-0.2,0.5-0.5v-4.2
		C21.9,12.9,21.6,12.7,21.4,12.7z"/>
</g>
</svg>
